<svg id="Layer_1" data-name="Layer 1" xmlns="http://www.w3.org/2000/svg" viewBox="0 0 61.87 61.15"><defs><style>.cls-1{fill:#070707;}.cls-2{fill:#f79d1f;}</style></defs><rect class="cls-1" width="61.87" height="61.15"/><path class="cls-2" d="M44.38,48.44,34.46,41l-9.92,7.44V26.81H17.1v-.32c0-2.34,0-4.69,0-7a5,5,0,0,1,4.13-5,5.82,5.82,0,0,1,.93-.07H39.31a5,5,0,0,1,5,4.32,5.49,5.49,0,0,1,0,.81V48.44ZM24.51,24.31V16.9c-.94,0-1.88,0-2.81,0a2.36,2.36,0,0,0-1.08.37,2.26,2.26,0,0,0-1,2.05v4.79a1.24,1.24,0,0,0,0,.18Z"/></svg>