<svg id="Layer_1" data-name="Layer 1" xmlns="http://www.w3.org/2000/svg" viewBox="0 0 221.38 69.88"><defs><style>.cls-1,.cls-2{fill:#fff;}.cls-2,.cls-3{opacity:1;isolation:isolate;}</style></defs><path class="cls-1" d="M34.3,57.15A10.66,10.66,0,0,1,33,57.07a21.53,21.53,0,0,1-13.5-6.16A21.84,21.84,0,0,1,19.22,20h0a1.46,1.46,0,0,1,2.06,0l3.31,3.22A27.81,27.81,0,0,1,46.35,10.55h.09A1.45,1.45,0,0,1,47.88,12a1.51,1.51,0,0,1-.11.56,24.71,24.71,0,0,0-1.38,14.32l3.31-4.14a1.46,1.46,0,0,1,1.14-.55h.71a1.48,1.48,0,0,1,1.2.63,21.84,21.84,0,0,1-17.7,34.32H34.3ZM28.62,41a6.79,6.79,0,0,0-2.13,5.36,7.84,7.84,0,0,0,6.83,7.82c.35,0,.74,0,1.2,0a7.9,7.9,0,0,0,7.58-7.8,13.47,13.47,0,0,0-6.69-13.13,11.75,11.75,0,0,1-1,9.24,1.46,1.46,0,0,1-1.16.73l-.39,0A5.12,5.12,0,0,1,28.62,41Zm3.48-12.2a1.43,1.43,0,0,1,.46.07A16.78,16.78,0,0,1,45,46.5a10.86,10.86,0,0,1-1.76,5.77,18.94,18.94,0,0,0,8.53-25.4c-.21-.42-.43-.82-.66-1.21L46.87,31a1.46,1.46,0,0,1-1.14.55l-.26,0a1.46,1.46,0,0,1-1.12-1,27.45,27.45,0,0,1-.08-16.82,24.91,24.91,0,0,0-18.1,12.58,1.44,1.44,0,0,1-1.06.74l-.22,0a1.45,1.45,0,0,1-1-.42l-3.55-3.47a19,19,0,0,0,2.35,26.69,18.46,18.46,0,0,0,2.1,1.53,10.59,10.59,0,0,1-1.19-4.91,9.6,9.6,0,0,1,5-9,1.46,1.46,0,0,1,2,.58,1.66,1.66,0,0,1,.16.49,2.15,2.15,0,0,0,1.56,1.76A8.69,8.69,0,0,0,31,31.19a1.45,1.45,0,0,1,.17-2.05,1.42,1.42,0,0,1,.94-.35Z"/><path class="cls-2" d="M34.94,69.88a34,34,0,0,1-7-.71,34.65,34.65,0,0,1-12.49-5.25A35.07,35.07,0,0,1,2.75,48.54,34.16,34.16,0,0,1,.71,42a35.14,35.14,0,0,1,0-14.08A35,35,0,0,1,21.34,2.75a34.38,34.38,0,0,1,6.56-2A35.19,35.19,0,0,1,42,.71,35,35,0,0,1,67.14,21.34a34.16,34.16,0,0,1,2,6.56,35.19,35.19,0,0,1,0,14.09A34.84,34.84,0,0,1,34.94,69.88Zm0-67A32,32,0,0,0,17,8.33,32.25,32.25,0,0,0,5.38,22.45a31.8,31.8,0,0,0-1.87,6,32.4,32.4,0,0,0,0,12.94,32.17,32.17,0,0,0,18.94,23.1,32.16,32.16,0,0,0,19,1.87,31.72,31.72,0,0,0,11.47-4.83A32.19,32.19,0,0,0,64.51,47.43a31.8,31.8,0,0,0,1.87-6,32.4,32.4,0,0,0,0-12.94A32.12,32.12,0,0,0,47.43,5.38a31.57,31.57,0,0,0-6-1.87A32,32,0,0,0,34.94,2.86Z"/><path class="cls-1" d="M85,50.41V40.5h6.4V42H86.84v2.77h3.71v1.43H86.84v4.25Z"/><path class="cls-1" d="M109.35,50.58a5.06,5.06,0,0,1-2.59-.65A4.66,4.66,0,0,1,105,48.12a6,6,0,0,1,0-5.33A4.66,4.66,0,0,1,106.76,41a5.49,5.49,0,0,1,5.18,0,4.52,4.52,0,0,1,1.74,1.81,6,6,0,0,1,0,5.33,4.52,4.52,0,0,1-1.74,1.81A5.08,5.08,0,0,1,109.35,50.58Zm0-1.63a2.89,2.89,0,0,0,2.26-.93,4.34,4.34,0,0,0,0-5.13,3.21,3.21,0,0,0-4.52,0,4.3,4.3,0,0,0,0,5.13A2.92,2.92,0,0,0,109.35,49Z"/><path class="cls-1" d="M131.61,50.58a4.52,4.52,0,0,1-2-.43,3.31,3.31,0,0,1-1.39-1.31,4.29,4.29,0,0,1-.52-2.22V40.5h1.81v6.13a2.4,2.4,0,0,0,.56,1.73,2.41,2.41,0,0,0,3.09,0,2.36,2.36,0,0,0,.57-1.73V40.5h1.81v6.12a4.2,4.2,0,0,1-.54,2.22,3.46,3.46,0,0,1-1.43,1.31A4.64,4.64,0,0,1,131.61,50.58Z"/><path class="cls-1" d="M149.31,50.41V40.5h1.81l4.65,7v-7h1.81v9.91h-1.81l-4.65-7v7Z"/><path class="cls-1" d="M171.39,50.41V40.5h3.39a5.94,5.94,0,0,1,2.86.62,3.88,3.88,0,0,1,1.67,1.73,6.58,6.58,0,0,1,0,5.22,3.85,3.85,0,0,1-1.67,1.72,5.94,5.94,0,0,1-2.86.62Zm1.82-1.56h1.48a4,4,0,0,0,2-.4,2.33,2.33,0,0,0,1-1.16,5.56,5.56,0,0,0,0-3.66,2.31,2.31,0,0,0-1-1.17,3.93,3.93,0,0,0-2-.41h-1.48Z"/><path class="cls-1" d="M193.34,50.41V40.5H197a4.16,4.16,0,0,1,2,.41A2.73,2.73,0,0,1,200.09,42a3.09,3.09,0,0,1,.38,1.52,3,3,0,0,1-.48,1.65,2.62,2.62,0,0,1-1.47,1.09l2,4.15h-2.08l-1.84-3.91h-1.5v3.91Zm1.81-5.24h1.71a1.75,1.75,0,0,0,1.33-.44,1.6,1.6,0,0,0,.42-1.16,1.54,1.54,0,0,0-.41-1.13,1.85,1.85,0,0,0-1.35-.42h-1.7Z"/><path class="cls-1" d="M216.26,50.41V46.88l-3.33-6.38h2l2.2,4.57,2.18-4.57h2l-3.31,6.38v3.53Z"/><g class="cls-3"><path class="cls-1" d="M85,19.55h4.82v1.8h-3v1.76h3v1.78h-3v4.37H85Z"/><path class="cls-1" d="M98.51,19.31a4.8,4.8,0,0,1,3.54,1.49,5.18,5.18,0,0,1,0,7.23,5.07,5.07,0,0,1-7.18,0,5.17,5.17,0,0,1-.77-6.15,5.06,5.06,0,0,1,4.39-2.53Zm0,1.81a3.08,3.08,0,0,0-2.27.93,3.27,3.27,0,0,0-.91,2.38A3.09,3.09,0,0,0,96.46,27a3.17,3.17,0,0,0,2.06.73,3,3,0,0,0,2.24-.95,3.2,3.2,0,0,0,.93-2.34,3.24,3.24,0,0,0-.93-2.34A3.06,3.06,0,0,0,98.49,21.12Z"/><path class="cls-1" d="M107.83,19.55h2a6.47,6.47,0,0,1,2.29.29,2.35,2.35,0,0,1,1.1.95,2.91,2.91,0,0,1,.41,1.58,2.72,2.72,0,0,1-.45,1.6,2.8,2.8,0,0,1-1.39,1l2.3,4.32h-2l-2.18-4.11h-.17v4.11h-1.85Zm1.85,3.8h.58a2.17,2.17,0,0,0,1.21-.24.84.84,0,0,0,.34-.76,1,1,0,0,0-.17-.56.86.86,0,0,0-.44-.33,3.19,3.19,0,0,0-1-.11h-.51Z"/><path class="cls-1" d="M126.94,21.14l-1.3,1.28a3.83,3.83,0,0,0-2.88-1.3,3.31,3.31,0,0,0-2.4.94,3.12,3.12,0,0,0-1,2.31,3.21,3.21,0,0,0,1,2.39,3.4,3.4,0,0,0,2.47,1,3,3,0,0,0,1.62-.4,2.85,2.85,0,0,0,1.06-1.26h-2.81V24.34h4.88l0,.41a5,5,0,0,1-2.37,4.15,4.94,4.94,0,0,1-2.47.6,5.55,5.55,0,0,1-2.69-.65A4.89,4.89,0,0,1,118.23,27a5.34,5.34,0,0,1-.69-2.62A4.88,4.88,0,0,1,118.82,21a5,5,0,0,1,3.93-1.69,5.83,5.83,0,0,1,2.37.47A5.25,5.25,0,0,1,126.94,21.14Z"/><path class="cls-1" d="M131.77,19.55h5.3v1.81H133.6v1.75h3.47v1.78H133.6v2.55h3.47v1.82h-5.3Z"/><path class="cls-1" d="M141.23,19.55h2.19a7.16,7.16,0,0,1,3.14.53,4.09,4.09,0,0,1,1.7,1.7,5.58,5.58,0,0,1,.66,2.76,5.47,5.47,0,0,1-.37,2.06,4.21,4.21,0,0,1-1,1.56,3.53,3.53,0,0,1-1.42.86,10,10,0,0,1-2.65.24h-2.22Zm1.83,1.78v6.13h.86a4.35,4.35,0,0,0,1.84-.29,2.22,2.22,0,0,0,.93-1,3.49,3.49,0,0,0,.37-1.69,3.21,3.21,0,0,0-.87-2.4,3.46,3.46,0,0,0-2.5-.77Z"/><path class="cls-1" d="M159.33,29.26V19.55h1.53a8.16,8.16,0,0,1,1.94.17,2.63,2.63,0,0,1,1.39.86,2.27,2.27,0,0,1,.51,1.48,2.14,2.14,0,0,1-.23,1,2.57,2.57,0,0,1-.76.84A3.07,3.07,0,0,1,165,25a2.67,2.67,0,0,1,.41,1.48,2.77,2.77,0,0,1-.42,1.49,2.74,2.74,0,0,1-1.09,1,4.1,4.1,0,0,1-1.85.34Zm1.85-8v2.05h.4a1.47,1.47,0,0,0,1-.29.94.94,0,0,0,.33-.77.9.9,0,0,0-.32-.72,1.39,1.39,0,0,0-.94-.27Zm0,3.7V27.5h.46a2.87,2.87,0,0,0,1.55-.29,1,1,0,0,0,.4-.85,1.18,1.18,0,0,0-.46-1,2.65,2.65,0,0,0-1.57-.36Z"/><path class="cls-1" d="M168.92,19.55h2L172.71,23l1.8-3.49h2l-2.84,5.5v4.21h-1.86V25.05Z"/></g></svg>