<svg id="Layer_1" data-name="Layer 1" xmlns="http://www.w3.org/2000/svg" viewBox="0 0 176.39 173.99"><defs><style>.cls-1{fill:#f69b1e;}.cls-2{fill:#808083;}.cls-3{fill:#a6a7aa;}</style></defs><path class="cls-1" d="M96.6,166.58c1.66-2.2,7.06-7.72,7.06-18,0-14.58-18.76-22-12.64-38.67-11.81,6.26-12.82,26-8.8,32.22-3.85-1-6.36-6-6-10.12-6.36,7.52-7.65,20.72-.22,30.48,1.07,1.39,2.18,2.74,3.27,4.11l0,0s-22.07-8.16-22.07-30.3c0-34.35,31.54-35.09,24.81-68.74,15.2,11.55,19.53,35.77,19.53,50.12,6.86-3.24,7.65-13.5,7.71-13.85.19.15,10.87,13.87,10.87,31.8,0,23.61-23.36,30.92-23.55,31Z"/><path class="cls-2" d="M88.2,35.35a52.76,52.76,0,0,0-37.49,89.91,48.56,48.56,0,0,1,5.13-13.92A39.78,39.78,0,0,1,71.23,52.09c.62-.29,1.25-.57,1.89-.83a39.82,39.82,0,0,1,48.5,58.52,65.47,65.47,0,0,1,4.89,14.61,52.75,52.75,0,0,0-38.31-89Z"/><path class="cls-3" d="M51.78,148.78a70.76,70.76,0,1,1,73.86-.64c-3.43,10.06-10.68,17-17.64,21.32a83.71,83.71,0,1,0-39.23.09C62.2,165.27,55.2,158.39,51.78,148.78Z"/></svg>