<svg id="Layer_1" data-name="Layer 1" xmlns="http://www.w3.org/2000/svg" viewBox="0 0 61.15 61.15"><defs><style>.cls-1{fill:#108441;}.cls-2{fill:#fff;}</style></defs><rect class="cls-1" width="61.15" height="61.15"/><path class="cls-2" d="M42.87,40.44A8.18,8.18,0,0,1,41,43.15,9.66,9.66,0,0,1,38.08,45a14.1,14.1,0,0,1-3.68,1v4.77H30.09v-4.6a17.38,17.38,0,0,1-5.51-1,12.21,12.21,0,0,1-4.54-3l3.83-3.84A7.65,7.65,0,0,0,27,40.21a14.32,14.32,0,0,0,3.67.64V33.14L29.28,33a12.43,12.43,0,0,1-3.4-.92,7.51,7.51,0,0,1-4.65-7.56,8.61,8.61,0,0,1,2.35-6.18,10.21,10.21,0,0,1,6.51-2.94V11.54H34.4v3.79a14.66,14.66,0,0,1,4.62,1,12.47,12.47,0,0,1,3.77,2.49L39,22.53A6.45,6.45,0,0,0,36.55,21a10.9,10.9,0,0,0-2.75-.55V27.9l1.62.25a15.75,15.75,0,0,1,3.45.92,7.9,7.9,0,0,1,2.34,1.47A6.64,6.64,0,0,1,43,33.29a11,11,0,0,1,.56,3.64A8.52,8.52,0,0,1,42.87,40.44ZM30.65,20.53a4.32,4.32,0,0,0-2.79,1.3,3.59,3.59,0,0,0-.92,2.45,3.25,3.25,0,0,0,.21,1.15,2.93,2.93,0,0,0,.69,1,4.89,4.89,0,0,0,2.81,1.19Zm6.17,14a3.23,3.23,0,0,0-1.4-.79c-.51-.12-1.05-.23-1.62-.31v7.32a5,5,0,0,0,2.94-1.15,3.23,3.23,0,0,0,1-2.51A3.36,3.36,0,0,0,36.82,34.54Z"/></svg>