<svg id="Layer_1" data-name="Layer 1" xmlns="http://www.w3.org/2000/svg" xmlns:xlink="http://www.w3.org/1999/xlink" viewBox="0 0 61.15 61.15"><defs><style>.cls-1{fill:url(#radial-gradient);}.cls-2,.cls-3{fill:#fff;}.cls-3{opacity:1;isolation:isolate;}</style><radialGradient id="radial-gradient" cx="-201.26" cy="-9.8" r="0.69" gradientTransform="matrix(44, 0, 0, -44, 8885.86, -400.81)" gradientUnits="userSpaceOnUse"><stop offset="0" stop-color="#ed1c78"/><stop offset="1" stop-color="#7c143f"/></radialGradient></defs><circle class="cls-1" cx="30.57" cy="30.57" r="30.57"/><path class="cls-2" d="M30.13,46a8.49,8.49,0,0,1-.88-.05,15,15,0,0,1-9.4-4.29,15.2,15.2,0,0,1-.22-21.5h0a1,1,0,0,1,1.43,0l2.31,2.25A19.34,19.34,0,0,1,38.52,13.6h0a1,1,0,0,1,1,1,1,1,0,0,1-.08.38,17.19,17.19,0,0,0-1,10l2.31-2.88a1,1,0,0,1,.79-.38h.49a1,1,0,0,1,.84.43A15.2,15.2,0,0,1,30.65,46h-.52Zm-4-11.25a4.72,4.72,0,0,0-1.48,3.73A5.46,5.46,0,0,0,29.44,44q.36,0,.84,0a5.5,5.5,0,0,0,5.28-5.43,9.41,9.41,0,0,0-4.66-9.14,8.19,8.19,0,0,1-.7,6.44,1,1,0,0,1-.8.5l-.28,0A3.58,3.58,0,0,1,26.17,34.78Zm2.43-8.49a1.06,1.06,0,0,1,.31.05,11.67,11.67,0,0,1,8.66,12.28,7.52,7.52,0,0,1-1.22,4A13.18,13.18,0,0,0,42.28,25c-.14-.28-.29-.56-.46-.84l-3,3.69a1,1,0,0,1-.79.38l-.18,0a1,1,0,0,1-.78-.68,19.19,19.19,0,0,1-.06-11.71,17.36,17.36,0,0,0-12.59,8.76,1,1,0,0,1-.74.52h-.15a1,1,0,0,1-.71-.29L20.4,22.36A13.19,13.19,0,0,0,23.5,42a7.42,7.42,0,0,1-.84-3.42,6.68,6.68,0,0,1,3.48-6.25,1,1,0,0,1,1.37.4,1,1,0,0,1,.12.34,1.49,1.49,0,0,0,1.08,1.23,6,6,0,0,0-.9-6.34,1,1,0,0,1,.12-1.43,1.07,1.07,0,0,1,.66-.24Z"/><path class="cls-3" d="M30.57,54.89a23.82,23.82,0,0,1-4.9-.49A24.19,24.19,0,0,1,17,50.74,24.5,24.5,0,0,1,8.16,40a24.18,24.18,0,0,1-1.41-4.57,24.5,24.5,0,0,1,0-9.8A24,24,0,0,1,10.41,17a24.35,24.35,0,0,1,10.7-8.81,23.62,23.62,0,0,1,4.56-1.42,24.55,24.55,0,0,1,9.81,0A24.35,24.35,0,0,1,53,21.11a23.62,23.62,0,0,1,1.42,4.56,24.55,24.55,0,0,1,0,9.81A24.26,24.26,0,0,1,35.48,54.4,23.84,23.84,0,0,1,30.57,54.89Zm0-46.65a22.32,22.32,0,0,0-12.48,3.82A22.36,22.36,0,0,0,10,21.88a22.09,22.09,0,0,0-1.3,4.19,22.36,22.36,0,0,0,0,9,22,22,0,0,0,3.36,8,22.36,22.36,0,0,0,9.82,8.09,22.09,22.09,0,0,0,4.19,1.3,22.41,22.41,0,0,0,9,0,22.16,22.16,0,0,0,8-3.36,22.41,22.41,0,0,0,8.09-9.82,22,22,0,0,0,1.3-4.2,22.36,22.36,0,0,0,0-9,22,22,0,0,0-3.36-8A22.36,22.36,0,0,0,39.27,10a22.43,22.43,0,0,0-8.7-1.76Z"/></svg>