<svg id="Layer_1" data-name="Layer 1" xmlns="http://www.w3.org/2000/svg" viewBox="0 0 61.21 61.15"><defs><style>.cls-1{fill:#f79d1f;}</style></defs><path class="cls-1" d="M30.75,0A30.58,30.58,0,1,0,61.21,30.63,30.55,30.55,0,0,0,30.75,0Zm-.11,56.51a26,26,0,1,1,26-25.89A26,26,0,0,1,30.64,56.51Z"/><path class="cls-1" d="M35.87,40.26a5.45,5.45,0,0,1-.7,0c-.76,0-.78,0-.78-.77,0-2.4,0-4.8,0-7.2V25.23c0-1.08,0-1-1.08-1H26.1c-1.58,0-1.38-.15-1.39,1.42,0,1.32,0,1.32,1.28,1.39h.27c.38,0,.61.18.62.58s0,.55,0,.83V38.68c0,1.49,0,1.53-1.51,1.56-.58,0-.68.27-.68.76,0,1.25,0,2.5,0,3.74,0,.75,0,.77.78.78H36c.31,0,.54-.09.54-.46,0-1.38,0-2.77,0-4.15C36.55,40.47,36.34,40.23,35.87,40.26Z"/><path class="cls-1" d="M30.16,22.45a4.12,4.12,0,1,0,.11-8.23,4.09,4.09,0,0,0-4.14,4.12A4.15,4.15,0,0,0,30.16,22.45Z"/></svg>