<svg id="Layer_1" data-name="Layer 1" xmlns="http://www.w3.org/2000/svg" viewBox="0 0 61.21 61.15"><defs><style>.cls-1{fill:#f79d1f;}</style></defs><path class="cls-1" d="M30.75,0A30.58,30.58,0,1,0,61.21,30.63,30.55,30.55,0,0,0,30.75,0ZM25.58,7.17a7.16,7.16,0,0,1,7.12,7.22,7.39,7.39,0,0,1-7.3,7.13,7.29,7.29,0,0,1-7.09-7.3C18.31,10.5,21.63,6.9,25.58,7.17Zm1.73,33.92-.65,0c-3.41,0-6.83,0-10.25,0a4,4,0,0,1-1.57-.32,2.17,2.17,0,0,1-1.22-2.17c0-2.38,0-4.76,0-7.15a12.82,12.82,0,0,1,.78-4.37,11.24,11.24,0,0,1,4-5.4c.08-.06.15-.13.27-.24a10,10,0,0,0,6.72,2.7,9.77,9.77,0,0,0,6.76-2.66c2.36,1.1,5.31,5.53,5,9.46l-1.3,1a6.44,6.44,0,0,0-7.35,1.25C26.32,35.43,26.09,38.16,27.31,41.09ZM50.06,30.18l-.1,0a3.15,3.15,0,0,1-1.29,2.11,3.39,3.39,0,0,1-3.29.78c-.31-.1-.63-.18-.85-.24-2.37,1.73-4.64,3.39-6.93,5.08l7.07,5.15a3.38,3.38,0,0,1,2.87-.17,3.48,3.48,0,0,1,2.37,2.71s.1.07.15.1v1.45c-.14.28-.27.57-.41.86a3.49,3.49,0,0,1-1.5,1.63,3.71,3.71,0,0,1-3.89-.12,3.43,3.43,0,0,1-1.66-3.08v-.63l-7-5.09a3.84,3.84,0,0,1-5.29-.36,3.56,3.56,0,0,1-.15-4.67c1.1-1.45,3-2.28,5.48-.61l6.84-5a15.47,15.47,0,0,1,.34-1.9,3.59,3.59,0,0,1,3.27-2.37c2,0,3.14.79,3.81,2.83,0,0,.11.06.16.09Z"/></svg>