<svg id="Layer_1" data-name="Layer 1" xmlns="http://www.w3.org/2000/svg" viewBox="0 0 109.89 148.02"><defs><style>.cls-1,.cls-5{fill:#f79d1f;}.cls-2{fill:#808184;}.cls-3,.cls-4{fill:#a7a9ac;}.cls-4{font-size:20.54px;letter-spacing:0.04em;}.cls-4,.cls-5{font-family:CenturyGothic-Bold, Century Gothic;font-weight:700;}.cls-5{font-size:13.04px;letter-spacing:0.42em;}</style></defs><path class="cls-1" d="M60.46,106.44A17.55,17.55,0,0,0,65.1,94.61c0-9.57-12.32-14.46-8.3-25.38-7.75,4.1-8.41,17.08-5.78,21.14-2.52-.66-4.17-4-4-6.64a16.4,16.4,0,0,0-.14,20c.7.91,1.43,1.8,2.15,2.7v0S34.6,101.06,34.6,86.53c0-22.55,20.7-23,16.29-45.13C60.86,49,63.7,64.89,63.7,74.3c4.5-2.12,5-8.86,5.06-9.09.13.1,7.14,9.11,7.14,20.88,0,15.5-15.33,20.29-15.46,20.33Z"/><path class="cls-2" d="M54.94,20.29a34.63,34.63,0,0,0-24.6,59,32.13,32.13,0,0,1,3.36-9.14,26.13,26.13,0,0,1,10.11-38.9c.4-.19.82-.37,1.24-.54A26.13,26.13,0,0,1,76.88,69.16a42.5,42.5,0,0,1,3.21,9.58A34.62,34.62,0,0,0,54.94,20.29Z"/><path class="cls-3" d="M31,94.76a46.45,46.45,0,1,1,48.49-.42,26.9,26.9,0,0,1-11.58,14,54.95,54.95,0,1,0-25.76.06A27.79,27.79,0,0,1,31,94.76Z"/><text class="cls-4" transform="translate(16.04 129.77)">SM<tspan class="cls-1" x="30.81" y="0">O</tspan><tspan x="48.88" y="0">KE</tspan></text><text class="cls-5" transform="translate(15.31 144.02)">SIGNAL</text></svg>