<svg id="Layer_1" data-name="Layer 1" xmlns="http://www.w3.org/2000/svg" viewBox="0 0 236.74 75.38"><defs><style>.cls-1{fill:#f79d1f;}.cls-2{fill:#808184;}.cls-3{fill:#a7a9ac;}</style></defs><path class="cls-1" d="M42.05,74a12.17,12.17,0,0,0,3.22-8.23c0-6.65-8.56-10.05-5.77-17.65C34.11,51,33.65,60,35.48,62.85c-1.75-.46-2.9-2.75-2.75-4.62a11.4,11.4,0,0,0-.1,13.91c.49.64,1,1.26,1.49,1.88h0S24.06,70.28,24.06,60.17c0-15.67,14.4-16,11.33-31.38,6.94,5.28,8.91,16.33,8.91,22.88,3.13-1.47,3.5-6.16,3.52-6.32a25.57,25.57,0,0,1,5,14.52C52.78,70.65,42.12,74,42,74Z"/><path class="cls-2" d="M38.21,14.11A24.08,24.08,0,0,0,21.1,55.16a22.08,22.08,0,0,1,2.34-6.35,18.16,18.16,0,0,1,7-27c.28-.14.57-.26.86-.38A18.17,18.17,0,0,1,53.47,48.09a29.79,29.79,0,0,1,2.23,6.67A24.08,24.08,0,0,0,38.21,14.11Z"/><path class="cls-3" d="M21.59,65.9a32.31,32.31,0,1,1,33.72-.3,18.71,18.71,0,0,1-8.06,9.74,38.21,38.21,0,1,0-17.91,0A19.32,19.32,0,0,1,21.59,65.9Z"/><path class="cls-3" d="M115.69,14l-4,3.5q-2.1-2.91-4.27-2.91a2.57,2.57,0,0,0-1.72.57,1.64,1.64,0,0,0-.68,1.27,2.24,2.24,0,0,0,.48,1.34,37.08,37.08,0,0,0,3.94,3.62q3.07,2.57,3.72,3.24a11.39,11.39,0,0,1,2.32,3.15,8,8,0,0,1,.68,3.29,7.54,7.54,0,0,1-2.4,5.73A8.73,8.73,0,0,1,107.54,39a9.33,9.33,0,0,1-5.25-1.47,11.69,11.69,0,0,1-3.83-4.64L103,30.18q2,3.74,4.69,3.73a3.43,3.43,0,0,0,2.32-.8,2.4,2.4,0,0,0,.94-1.86,3.24,3.24,0,0,0-.71-1.92,21.15,21.15,0,0,0-3.13-2.93,31.33,31.33,0,0,1-6-5.79,7.37,7.37,0,0,1-1.35-4.08,6.67,6.67,0,0,1,2.24-5,7.75,7.75,0,0,1,5.52-2.1,8.77,8.77,0,0,1,4,1A14.54,14.54,0,0,1,115.69,14Z"/><path class="cls-3" d="M125.61,10.11h5.23l6.53,19.67L144,10.11h5.22l4.73,28.19h-5.19l-3-17.8-6,17.8H135l-5.93-17.8L126,38.3h-5.23Z"/><path class="cls-1" d="M173.07,9.4a14,14,0,0,1,10.29,4.34,14.39,14.39,0,0,1,4.31,10.55,14.27,14.27,0,0,1-4.25,10.45,14.73,14.73,0,0,1-20.86-.12,14.55,14.55,0,0,1-4.2-10.42,14.67,14.67,0,0,1,2-7.44A14.8,14.8,0,0,1,173.07,9.4Zm0,5.26a8.81,8.81,0,0,0-6.58,2.72,9.46,9.46,0,0,0-2.67,6.91,9,9,0,0,0,3.36,7.4,9.19,9.19,0,0,0,6,2.13,8.72,8.72,0,0,0,6.5-2.76,9.38,9.38,0,0,0,2.69-6.8,9.4,9.4,0,0,0-2.71-6.82A8.79,8.79,0,0,0,173,14.66Z"/><path class="cls-3" d="M194.33,10.11h5.43v9.72l7.65-9.72h6.44L204,22.69l10.8,15.61h-6.36l-8.69-12.52V38.3h-5.43Z"/><path class="cls-3" d="M220.22,10.11h15.39v5.25H225.55v5.1h10.06v5.16H225.55V33h10.06V38.3H220.22Z"/><path class="cls-1" d="M107.72,50.06l-2.52,2.23c-.89-1.24-1.79-1.85-2.71-1.85a1.66,1.66,0,0,0-1.1.36,1.05,1.05,0,0,0-.42.81,1.4,1.4,0,0,0,.3.85,23.63,23.63,0,0,0,2.5,2.3c1.3,1.08,2.09,1.77,2.36,2.05a7.31,7.31,0,0,1,1.47,2A5,5,0,0,1,108,60.9a4.78,4.78,0,0,1-1.53,3.64,5.51,5.51,0,0,1-4,1.43A6,6,0,0,1,99.21,65a7.55,7.55,0,0,1-2.43-3l2.87-1.72q1.29,2.37,3,2.37a2.17,2.17,0,0,0,1.47-.51,1.53,1.53,0,0,0,.6-1.18,2,2,0,0,0-.45-1.22,12.76,12.76,0,0,0-2-1.86,20.24,20.24,0,0,1-3.78-3.68,4.74,4.74,0,0,1-.85-2.59A4.21,4.21,0,0,1,99,48.51a4.91,4.91,0,0,1,3.5-1.33,5.4,5.4,0,0,1,2.55.62A9.25,9.25,0,0,1,107.72,50.06Z"/><path class="cls-1" d="M121.51,47.63h3.38V65.52h-3.38Z"/><path class="cls-1" d="M155.71,50.55l-2.4,2.37A7.09,7.09,0,0,0,148,50.51a6.11,6.11,0,0,0-4.43,1.75,5.75,5.75,0,0,0-1.78,4.26,5.9,5.9,0,0,0,1.85,4.39,6.3,6.3,0,0,0,4.57,1.8,5.52,5.52,0,0,0,3-.74,5.24,5.24,0,0,0,2-2.32H148v-3.2h9l0,.75a8.8,8.8,0,0,1-1.21,4.46,8.52,8.52,0,0,1-3.15,3.21,9,9,0,0,1-4.54,1.1,10,10,0,0,1-5-1.21,8.8,8.8,0,0,1-3.46-3.44,9.74,9.74,0,0,1-1.27-4.83,9,9,0,0,1,2.35-6.19A9.26,9.26,0,0,1,148,47.18a11.17,11.17,0,0,1,4.37.86A10.09,10.09,0,0,1,155.71,50.55Z"/><path class="cls-1" d="M170.59,47.63h3.26l7.66,11.78V47.63h3.41V65.52h-3.28L174,53.78V65.52h-3.4Z"/><path class="cls-1" d="M204.93,47.63h3.46l6.88,17.89h-3.54l-1.4-3.68H203l-1.46,3.68H198Zm1.75,4.74-2.4,6.15h4.79Z"/><path class="cls-1" d="M228.37,47.63h3.4V62.28h5v3.24h-8.37Z"/></svg>